G04 EAGLE Gerber RS-274X export*
G75*
%MOMM*%
%FSLAX34Y34*%
%LPD*%
%INSoldermask Bottom*%
%IPPOS*%
%AMOC8*
5,1,8,0,0,1.08239X$1,22.5*%
G01*
%ADD10C,2.743200*%
%ADD11P,2.969212X8X292.500000*%
%ADD12R,1.621200X1.621200*%
%ADD13C,1.621200*%
%ADD14C,1.727200*%
%ADD15C,2.203200*%
%ADD16R,1.733200X1.733200*%
%ADD17C,1.733200*%
%ADD18C,1.625600*%
%ADD19C,0.853200*%
%ADD20C,1.117600*%
%ADD21C,1.016000*%


D10*
X38100Y38100D03*
X723900Y38100D03*
X38100Y723900D03*
X723900Y723900D03*
X584200Y698500D03*
D11*
X584200Y647700D03*
D12*
X25400Y128270D03*
D13*
X25400Y153270D03*
X25400Y178270D03*
X25400Y203270D03*
D14*
X27500Y571500D03*
X27500Y546100D03*
X27500Y520700D03*
X27500Y495300D03*
X27500Y596900D03*
X27500Y622300D03*
X27500Y647700D03*
D15*
X345500Y416500D03*
X345500Y726500D03*
D16*
X723900Y609600D03*
D17*
X723900Y584200D03*
D18*
X177800Y108712D02*
X177800Y94488D01*
X152400Y94488D02*
X152400Y108712D01*
D16*
X25400Y279400D03*
D17*
X25400Y304800D03*
D16*
X723900Y533400D03*
D17*
X723900Y508000D03*
D19*
X237800Y49050D03*
X295600Y49050D03*
D16*
X723900Y685800D03*
D17*
X723900Y660400D03*
D20*
X124460Y119380D03*
X144780Y172720D03*
D21*
X464820Y81280D03*
X132080Y33020D03*
D20*
X220980Y133096D03*
X220980Y151384D03*
D21*
X416560Y68580D03*
X454660Y68580D03*
D20*
X109220Y279400D03*
X154940Y368300D03*
X271780Y320040D03*
X312420Y320040D03*
X271780Y299720D03*
X312420Y299720D03*
X177800Y43180D03*
X363220Y129540D03*
X360680Y182880D03*
X396240Y81280D03*
X157480Y43180D03*
X477520Y40640D03*
X375920Y182880D03*
X342900Y99060D03*
X396240Y96520D03*
X662940Y322580D03*
X635000Y322580D03*
X695960Y203200D03*
X636016Y203200D03*
X457200Y22860D03*
X363220Y89154D03*
X195580Y185420D03*
X195580Y208280D03*
X124460Y335280D03*
X111760Y622300D03*
X322580Y185420D03*
X213360Y208280D03*
X139700Y335280D03*
X134620Y596900D03*
X106680Y190500D03*
X144780Y190500D03*
X88900Y152400D03*
X297180Y215900D03*
X228600Y327660D03*
X370840Y284480D03*
X645160Y99060D03*
X584200Y187960D03*
X495300Y129540D03*
X426720Y170180D03*
X325120Y55880D03*
X317500Y127000D03*
X693420Y78740D03*
X408940Y711200D03*
X383540Y711200D03*
X248920Y327660D03*
X233680Y264160D03*
X177800Y208280D03*
X177800Y132080D03*
X548640Y218440D03*
X519738Y230178D03*
X548640Y190500D03*
X215900Y327660D03*
X662940Y177800D03*
X636016Y177800D03*
X254116Y78624D03*
X231140Y83820D03*
X279400Y79756D03*
X279400Y116840D03*
X261620Y43180D03*
X277272Y43180D03*
X350520Y55880D03*
X563880Y137160D03*
X401320Y182880D03*
X675640Y144780D03*
X647700Y144780D03*
X226060Y398780D03*
M02*
