M48
;GenerationSoftware,Autodesk,EAGLE,9.6.2*%
;CreationDate,2022-10-03T21:17:22Z*%
FMAT,2
ICI,OFF
METRIC,TZ,000.000
T9C0.406
T8C0.508
T7C0.650
T6C0.910
T5C0.914
T4C1.016
T3C1.020
T2C2.000
T1C2.540
%
G90
M71
T1
X3810Y3810
X72390Y3810
X3810Y72390
X72390Y72390
T2
X34550Y72650
X34550Y41650
T3
X72390Y66040
X72390Y60960
X72390Y58420
X2540Y27940
X2540Y30480
X72390Y53340
X72390Y50800
X72390Y68580
T4
X58420Y69850
X58420Y64770
X2750Y57150
X2750Y54610
X2750Y52070
X2750Y59690
X2750Y62230
X2750Y64770
X2750Y49530
T5
X17780Y10160
X15240Y10160
T6
X2540Y12827
X2540Y15327
X2540Y17827
X2540Y20327
T7
X29560Y4905
X23780Y4905
T8
X12446Y33528
X11176Y62230
X32258Y18542
X21336Y20828
X13970Y33528
X13462Y59690
X10668Y19050
X14478Y19050
X8890Y15240
X29718Y21590
X22860Y32766
X37084Y28448
X64516Y9906
X58420Y18796
X49530Y12954
X42672Y17018
X32512Y5588
X31750Y12700
X69342Y7874
X40894Y71120
X38354Y71120
X31242Y29972
X23368Y26416
X17780Y20828
X17780Y13208
X54864Y21844
X51974Y23018
X54864Y19050
X21590Y32766
X66294Y17780
X63602Y17780
X25412Y7862
X23114Y8382
X27940Y7976
X27940Y11684
X26162Y4318
X27727Y4318
X35052Y5588
X56388Y13716
X40132Y18288
X67564Y14478
X64770Y14478
X22606Y39878
X12446Y11938
X14478Y17272
X22098Y13310
X22098Y15138
X10922Y27940
X15494Y36830
X27178Y32004
X31242Y32004
X27178Y29972
X17780Y4318
X36322Y12954
X36068Y18288
X39624Y8128
X24892Y32766
X15748Y4318
X47752Y4064
X37592Y18288
X34290Y9906
X39624Y9652
X66294Y32258
X63500Y32258
X69596Y20320
X63602Y20320
X45720Y2286
X36322Y8915
X19558Y18542
X19558Y20828
T9
X46482Y8128
X45466Y6858
X41656Y6858
X13208Y3302
M30