G04 EAGLE Gerber RS-274X export*
G75*
%MOMM*%
%FSLAX34Y34*%
%LPD*%
%IN*%
%IPPOS*%
%AMOC8*
5,1,8,0,0,1.08239X$1,22.5*%
G01*
%ADD10C,0.254000*%


D10*
X0Y0D02*
X762000Y0D01*
X762000Y762000D01*
X0Y762000D01*
X0Y0D01*
X306900Y48850D02*
X306911Y48589D01*
X306946Y48329D01*
X307002Y48074D01*
X307081Y47824D01*
X307181Y47582D01*
X307302Y47350D01*
X307443Y47129D01*
X307602Y46922D01*
X307779Y46729D01*
X307972Y46552D01*
X308179Y46393D01*
X308400Y46252D01*
X308632Y46131D01*
X308874Y46031D01*
X309124Y45952D01*
X309379Y45896D01*
X309639Y45861D01*
X309900Y45850D01*
X310161Y45861D01*
X310421Y45896D01*
X310676Y45952D01*
X310926Y46031D01*
X311168Y46131D01*
X311400Y46252D01*
X311621Y46393D01*
X311828Y46552D01*
X312021Y46729D01*
X312198Y46922D01*
X312357Y47129D01*
X312498Y47350D01*
X312619Y47582D01*
X312719Y47824D01*
X312798Y48074D01*
X312854Y48329D01*
X312889Y48589D01*
X312900Y48850D01*
X312900Y59850D01*
X312889Y60111D01*
X312854Y60371D01*
X312798Y60626D01*
X312719Y60876D01*
X312619Y61118D01*
X312498Y61350D01*
X312357Y61571D01*
X312198Y61778D01*
X312021Y61971D01*
X311828Y62148D01*
X311621Y62307D01*
X311400Y62448D01*
X311168Y62569D01*
X310926Y62669D01*
X310676Y62748D01*
X310421Y62804D01*
X310161Y62839D01*
X309900Y62850D01*
X309639Y62839D01*
X309379Y62804D01*
X309124Y62748D01*
X308874Y62669D01*
X308632Y62569D01*
X308400Y62448D01*
X308179Y62307D01*
X307972Y62148D01*
X307779Y61971D01*
X307602Y61778D01*
X307443Y61571D01*
X307302Y61350D01*
X307181Y61118D01*
X307081Y60876D01*
X307002Y60626D01*
X306946Y60371D01*
X306911Y60111D01*
X306900Y59850D01*
X306900Y48850D01*
X306900Y9500D02*
X306911Y9239D01*
X306946Y8979D01*
X307002Y8724D01*
X307081Y8474D01*
X307181Y8232D01*
X307302Y8000D01*
X307443Y7779D01*
X307602Y7572D01*
X307779Y7379D01*
X307972Y7202D01*
X308179Y7043D01*
X308400Y6902D01*
X308632Y6781D01*
X308874Y6681D01*
X309124Y6602D01*
X309379Y6546D01*
X309639Y6511D01*
X309900Y6500D01*
X310161Y6511D01*
X310421Y6546D01*
X310676Y6602D01*
X310926Y6681D01*
X311168Y6781D01*
X311400Y6902D01*
X311621Y7043D01*
X311828Y7202D01*
X312021Y7379D01*
X312198Y7572D01*
X312357Y7779D01*
X312498Y8000D01*
X312619Y8232D01*
X312719Y8474D01*
X312798Y8724D01*
X312854Y8979D01*
X312889Y9239D01*
X312900Y9500D01*
X312900Y15700D01*
X312889Y15961D01*
X312854Y16221D01*
X312798Y16476D01*
X312719Y16726D01*
X312619Y16968D01*
X312498Y17200D01*
X312357Y17421D01*
X312198Y17628D01*
X312021Y17821D01*
X311828Y17998D01*
X311621Y18157D01*
X311400Y18298D01*
X311168Y18419D01*
X310926Y18519D01*
X310676Y18598D01*
X310421Y18654D01*
X310161Y18689D01*
X309900Y18700D01*
X309639Y18689D01*
X309379Y18654D01*
X309124Y18598D01*
X308874Y18519D01*
X308632Y18419D01*
X308400Y18298D01*
X308179Y18157D01*
X307972Y17998D01*
X307779Y17821D01*
X307602Y17628D01*
X307443Y17421D01*
X307302Y17200D01*
X307181Y16968D01*
X307081Y16726D01*
X307002Y16476D01*
X306946Y16221D01*
X306911Y15961D01*
X306900Y15700D01*
X306900Y9500D01*
X220500Y9500D02*
X220511Y9239D01*
X220546Y8979D01*
X220602Y8724D01*
X220681Y8474D01*
X220781Y8232D01*
X220902Y8000D01*
X221043Y7779D01*
X221202Y7572D01*
X221379Y7379D01*
X221572Y7202D01*
X221779Y7043D01*
X222000Y6902D01*
X222232Y6781D01*
X222474Y6681D01*
X222724Y6602D01*
X222979Y6546D01*
X223239Y6511D01*
X223500Y6500D01*
X223761Y6511D01*
X224021Y6546D01*
X224276Y6602D01*
X224526Y6681D01*
X224768Y6781D01*
X225000Y6902D01*
X225221Y7043D01*
X225428Y7202D01*
X225621Y7379D01*
X225798Y7572D01*
X225957Y7779D01*
X226098Y8000D01*
X226219Y8232D01*
X226319Y8474D01*
X226398Y8724D01*
X226454Y8979D01*
X226489Y9239D01*
X226500Y9500D01*
X226500Y15700D01*
X226489Y15961D01*
X226454Y16221D01*
X226398Y16476D01*
X226319Y16726D01*
X226219Y16968D01*
X226098Y17200D01*
X225957Y17421D01*
X225798Y17628D01*
X225621Y17821D01*
X225428Y17998D01*
X225221Y18157D01*
X225000Y18298D01*
X224768Y18419D01*
X224526Y18519D01*
X224276Y18598D01*
X224021Y18654D01*
X223761Y18689D01*
X223500Y18700D01*
X223239Y18689D01*
X222979Y18654D01*
X222724Y18598D01*
X222474Y18519D01*
X222232Y18419D01*
X222000Y18298D01*
X221779Y18157D01*
X221572Y17998D01*
X221379Y17821D01*
X221202Y17628D01*
X221043Y17421D01*
X220902Y17200D01*
X220781Y16968D01*
X220681Y16726D01*
X220602Y16476D01*
X220546Y16221D01*
X220511Y15961D01*
X220500Y15700D01*
X220500Y9500D01*
X220500Y48850D02*
X220511Y48589D01*
X220546Y48329D01*
X220602Y48074D01*
X220681Y47824D01*
X220781Y47582D01*
X220902Y47350D01*
X221043Y47129D01*
X221202Y46922D01*
X221379Y46729D01*
X221572Y46552D01*
X221779Y46393D01*
X222000Y46252D01*
X222232Y46131D01*
X222474Y46031D01*
X222724Y45952D01*
X222979Y45896D01*
X223239Y45861D01*
X223500Y45850D01*
X223761Y45861D01*
X224021Y45896D01*
X224276Y45952D01*
X224526Y46031D01*
X224768Y46131D01*
X225000Y46252D01*
X225221Y46393D01*
X225428Y46552D01*
X225621Y46729D01*
X225798Y46922D01*
X225957Y47129D01*
X226098Y47350D01*
X226219Y47582D01*
X226319Y47824D01*
X226398Y48074D01*
X226454Y48329D01*
X226489Y48589D01*
X226500Y48850D01*
X226500Y59850D01*
X226489Y60111D01*
X226454Y60371D01*
X226398Y60626D01*
X226319Y60876D01*
X226219Y61118D01*
X226098Y61350D01*
X225957Y61571D01*
X225798Y61778D01*
X225621Y61971D01*
X225428Y62148D01*
X225221Y62307D01*
X225000Y62448D01*
X224768Y62569D01*
X224526Y62669D01*
X224276Y62748D01*
X224021Y62804D01*
X223761Y62839D01*
X223500Y62850D01*
X223239Y62839D01*
X222979Y62804D01*
X222724Y62748D01*
X222474Y62669D01*
X222232Y62569D01*
X222000Y62448D01*
X221779Y62307D01*
X221572Y62148D01*
X221379Y61971D01*
X221202Y61778D01*
X221043Y61571D01*
X220902Y61350D01*
X220781Y61118D01*
X220681Y60876D01*
X220602Y60626D01*
X220546Y60371D01*
X220511Y60111D01*
X220500Y59850D01*
X220500Y48850D01*
X50800Y37601D02*
X50722Y36606D01*
X50566Y35620D01*
X50333Y34650D01*
X50024Y33701D01*
X49642Y32779D01*
X49189Y31890D01*
X48668Y31039D01*
X48081Y30231D01*
X47433Y29473D01*
X46727Y28767D01*
X45969Y28119D01*
X45161Y27532D01*
X44310Y27011D01*
X43421Y26558D01*
X42499Y26176D01*
X41550Y25867D01*
X40580Y25634D01*
X39594Y25478D01*
X38599Y25400D01*
X37601Y25400D01*
X36606Y25478D01*
X35620Y25634D01*
X34650Y25867D01*
X33701Y26176D01*
X32779Y26558D01*
X31890Y27011D01*
X31039Y27532D01*
X30231Y28119D01*
X29473Y28767D01*
X28767Y29473D01*
X28119Y30231D01*
X27532Y31039D01*
X27011Y31890D01*
X26558Y32779D01*
X26176Y33701D01*
X25867Y34650D01*
X25634Y35620D01*
X25478Y36606D01*
X25400Y37601D01*
X25400Y38599D01*
X25478Y39594D01*
X25634Y40580D01*
X25867Y41550D01*
X26176Y42499D01*
X26558Y43421D01*
X27011Y44310D01*
X27532Y45161D01*
X28119Y45969D01*
X28767Y46727D01*
X29473Y47433D01*
X30231Y48081D01*
X31039Y48668D01*
X31890Y49189D01*
X32779Y49642D01*
X33701Y50024D01*
X34650Y50333D01*
X35620Y50566D01*
X36606Y50722D01*
X37601Y50800D01*
X38599Y50800D01*
X39594Y50722D01*
X40580Y50566D01*
X41550Y50333D01*
X42499Y50024D01*
X43421Y49642D01*
X44310Y49189D01*
X45161Y48668D01*
X45969Y48081D01*
X46727Y47433D01*
X47433Y46727D01*
X48081Y45969D01*
X48668Y45161D01*
X49189Y44310D01*
X49642Y43421D01*
X50024Y42499D01*
X50333Y41550D01*
X50566Y40580D01*
X50722Y39594D01*
X50800Y38599D01*
X50800Y37601D01*
X736600Y37601D02*
X736522Y36606D01*
X736366Y35620D01*
X736133Y34650D01*
X735824Y33701D01*
X735442Y32779D01*
X734989Y31890D01*
X734468Y31039D01*
X733881Y30231D01*
X733233Y29473D01*
X732527Y28767D01*
X731769Y28119D01*
X730961Y27532D01*
X730110Y27011D01*
X729221Y26558D01*
X728299Y26176D01*
X727350Y25867D01*
X726380Y25634D01*
X725394Y25478D01*
X724399Y25400D01*
X723401Y25400D01*
X722406Y25478D01*
X721420Y25634D01*
X720450Y25867D01*
X719501Y26176D01*
X718579Y26558D01*
X717690Y27011D01*
X716839Y27532D01*
X716031Y28119D01*
X715273Y28767D01*
X714567Y29473D01*
X713919Y30231D01*
X713332Y31039D01*
X712811Y31890D01*
X712358Y32779D01*
X711976Y33701D01*
X711667Y34650D01*
X711434Y35620D01*
X711278Y36606D01*
X711200Y37601D01*
X711200Y38599D01*
X711278Y39594D01*
X711434Y40580D01*
X711667Y41550D01*
X711976Y42499D01*
X712358Y43421D01*
X712811Y44310D01*
X713332Y45161D01*
X713919Y45969D01*
X714567Y46727D01*
X715273Y47433D01*
X716031Y48081D01*
X716839Y48668D01*
X717690Y49189D01*
X718579Y49642D01*
X719501Y50024D01*
X720450Y50333D01*
X721420Y50566D01*
X722406Y50722D01*
X723401Y50800D01*
X724399Y50800D01*
X725394Y50722D01*
X726380Y50566D01*
X727350Y50333D01*
X728299Y50024D01*
X729221Y49642D01*
X730110Y49189D01*
X730961Y48668D01*
X731769Y48081D01*
X732527Y47433D01*
X733233Y46727D01*
X733881Y45969D01*
X734468Y45161D01*
X734989Y44310D01*
X735442Y43421D01*
X735824Y42499D01*
X736133Y41550D01*
X736366Y40580D01*
X736522Y39594D01*
X736600Y38599D01*
X736600Y37601D01*
X50800Y723401D02*
X50722Y722406D01*
X50566Y721420D01*
X50333Y720450D01*
X50024Y719501D01*
X49642Y718579D01*
X49189Y717690D01*
X48668Y716839D01*
X48081Y716031D01*
X47433Y715273D01*
X46727Y714567D01*
X45969Y713919D01*
X45161Y713332D01*
X44310Y712811D01*
X43421Y712358D01*
X42499Y711976D01*
X41550Y711667D01*
X40580Y711434D01*
X39594Y711278D01*
X38599Y711200D01*
X37601Y711200D01*
X36606Y711278D01*
X35620Y711434D01*
X34650Y711667D01*
X33701Y711976D01*
X32779Y712358D01*
X31890Y712811D01*
X31039Y713332D01*
X30231Y713919D01*
X29473Y714567D01*
X28767Y715273D01*
X28119Y716031D01*
X27532Y716839D01*
X27011Y717690D01*
X26558Y718579D01*
X26176Y719501D01*
X25867Y720450D01*
X25634Y721420D01*
X25478Y722406D01*
X25400Y723401D01*
X25400Y724399D01*
X25478Y725394D01*
X25634Y726380D01*
X25867Y727350D01*
X26176Y728299D01*
X26558Y729221D01*
X27011Y730110D01*
X27532Y730961D01*
X28119Y731769D01*
X28767Y732527D01*
X29473Y733233D01*
X30231Y733881D01*
X31039Y734468D01*
X31890Y734989D01*
X32779Y735442D01*
X33701Y735824D01*
X34650Y736133D01*
X35620Y736366D01*
X36606Y736522D01*
X37601Y736600D01*
X38599Y736600D01*
X39594Y736522D01*
X40580Y736366D01*
X41550Y736133D01*
X42499Y735824D01*
X43421Y735442D01*
X44310Y734989D01*
X45161Y734468D01*
X45969Y733881D01*
X46727Y733233D01*
X47433Y732527D01*
X48081Y731769D01*
X48668Y730961D01*
X49189Y730110D01*
X49642Y729221D01*
X50024Y728299D01*
X50333Y727350D01*
X50566Y726380D01*
X50722Y725394D01*
X50800Y724399D01*
X50800Y723401D01*
X736600Y723401D02*
X736522Y722406D01*
X736366Y721420D01*
X736133Y720450D01*
X735824Y719501D01*
X735442Y718579D01*
X734989Y717690D01*
X734468Y716839D01*
X733881Y716031D01*
X733233Y715273D01*
X732527Y714567D01*
X731769Y713919D01*
X730961Y713332D01*
X730110Y712811D01*
X729221Y712358D01*
X728299Y711976D01*
X727350Y711667D01*
X726380Y711434D01*
X725394Y711278D01*
X724399Y711200D01*
X723401Y711200D01*
X722406Y711278D01*
X721420Y711434D01*
X720450Y711667D01*
X719501Y711976D01*
X718579Y712358D01*
X717690Y712811D01*
X716839Y713332D01*
X716031Y713919D01*
X715273Y714567D01*
X714567Y715273D01*
X713919Y716031D01*
X713332Y716839D01*
X712811Y717690D01*
X712358Y718579D01*
X711976Y719501D01*
X711667Y720450D01*
X711434Y721420D01*
X711278Y722406D01*
X711200Y723401D01*
X711200Y724399D01*
X711278Y725394D01*
X711434Y726380D01*
X711667Y727350D01*
X711976Y728299D01*
X712358Y729221D01*
X712811Y730110D01*
X713332Y730961D01*
X713919Y731769D01*
X714567Y732527D01*
X715273Y733233D01*
X716031Y733881D01*
X716839Y734468D01*
X717690Y734989D01*
X718579Y735442D01*
X719501Y735824D01*
X720450Y736133D01*
X721420Y736366D01*
X722406Y736522D01*
X723401Y736600D01*
X724399Y736600D01*
X725394Y736522D01*
X726380Y736366D01*
X727350Y736133D01*
X728299Y735824D01*
X729221Y735442D01*
X730110Y734989D01*
X730961Y734468D01*
X731769Y733881D01*
X732527Y733233D01*
X733233Y732527D01*
X733881Y731769D01*
X734468Y730961D01*
X734989Y730110D01*
X735442Y729221D01*
X735824Y728299D01*
X736133Y727350D01*
X736366Y726380D01*
X736522Y725394D01*
X736600Y724399D01*
X736600Y723401D01*
X355500Y416063D02*
X355424Y415194D01*
X355272Y414334D01*
X355046Y413490D01*
X354748Y412670D01*
X354379Y411878D01*
X353942Y411122D01*
X353441Y410407D01*
X352880Y409738D01*
X352262Y409120D01*
X351593Y408559D01*
X350878Y408058D01*
X350122Y407621D01*
X349330Y407252D01*
X348510Y406954D01*
X347666Y406728D01*
X346807Y406576D01*
X345937Y406500D01*
X345063Y406500D01*
X344194Y406576D01*
X343334Y406728D01*
X342490Y406954D01*
X341670Y407252D01*
X340878Y407621D01*
X340122Y408058D01*
X339407Y408559D01*
X338738Y409120D01*
X338120Y409738D01*
X337559Y410407D01*
X337058Y411122D01*
X336621Y411878D01*
X336252Y412670D01*
X335954Y413490D01*
X335728Y414334D01*
X335576Y415194D01*
X335500Y416063D01*
X335500Y416937D01*
X335576Y417807D01*
X335728Y418666D01*
X335954Y419510D01*
X336252Y420330D01*
X336621Y421122D01*
X337058Y421878D01*
X337559Y422593D01*
X338120Y423262D01*
X338738Y423880D01*
X339407Y424441D01*
X340122Y424942D01*
X340878Y425379D01*
X341670Y425748D01*
X342490Y426046D01*
X343334Y426272D01*
X344194Y426424D01*
X345063Y426500D01*
X345937Y426500D01*
X346807Y426424D01*
X347666Y426272D01*
X348510Y426046D01*
X349330Y425748D01*
X350122Y425379D01*
X350878Y424942D01*
X351593Y424441D01*
X352262Y423880D01*
X352880Y423262D01*
X353441Y422593D01*
X353942Y421878D01*
X354379Y421122D01*
X354748Y420330D01*
X355046Y419510D01*
X355272Y418666D01*
X355424Y417807D01*
X355500Y416937D01*
X355500Y416063D01*
X355500Y726063D02*
X355424Y725194D01*
X355272Y724334D01*
X355046Y723490D01*
X354748Y722670D01*
X354379Y721878D01*
X353942Y721122D01*
X353441Y720407D01*
X352880Y719738D01*
X352262Y719120D01*
X351593Y718559D01*
X350878Y718058D01*
X350122Y717621D01*
X349330Y717252D01*
X348510Y716954D01*
X347666Y716728D01*
X346807Y716576D01*
X345937Y716500D01*
X345063Y716500D01*
X344194Y716576D01*
X343334Y716728D01*
X342490Y716954D01*
X341670Y717252D01*
X340878Y717621D01*
X340122Y718058D01*
X339407Y718559D01*
X338738Y719120D01*
X338120Y719738D01*
X337559Y720407D01*
X337058Y721122D01*
X336621Y721878D01*
X336252Y722670D01*
X335954Y723490D01*
X335728Y724334D01*
X335576Y725194D01*
X335500Y726063D01*
X335500Y726937D01*
X335576Y727807D01*
X335728Y728666D01*
X335954Y729510D01*
X336252Y730330D01*
X336621Y731122D01*
X337058Y731878D01*
X337559Y732593D01*
X338120Y733262D01*
X338738Y733880D01*
X339407Y734441D01*
X340122Y734942D01*
X340878Y735379D01*
X341670Y735748D01*
X342490Y736046D01*
X343334Y736272D01*
X344194Y736424D01*
X345063Y736500D01*
X345937Y736500D01*
X346807Y736424D01*
X347666Y736272D01*
X348510Y736046D01*
X349330Y735748D01*
X350122Y735379D01*
X350878Y734942D01*
X351593Y734441D01*
X352262Y733880D01*
X352880Y733262D01*
X353441Y732593D01*
X353942Y731878D01*
X354379Y731122D01*
X354748Y730330D01*
X355046Y729510D01*
X355272Y728666D01*
X355424Y727807D01*
X355500Y726937D01*
X355500Y726063D01*
X241050Y48837D02*
X240994Y48415D01*
X240884Y48003D01*
X240721Y47609D01*
X240508Y47241D01*
X240249Y46903D01*
X239947Y46601D01*
X239609Y46342D01*
X239241Y46129D01*
X238847Y45966D01*
X238435Y45856D01*
X238013Y45800D01*
X237587Y45800D01*
X237165Y45856D01*
X236753Y45966D01*
X236359Y46129D01*
X235991Y46342D01*
X235653Y46601D01*
X235351Y46903D01*
X235092Y47241D01*
X234879Y47609D01*
X234716Y48003D01*
X234606Y48415D01*
X234550Y48837D01*
X234550Y49263D01*
X234606Y49685D01*
X234716Y50097D01*
X234879Y50491D01*
X235092Y50859D01*
X235351Y51197D01*
X235653Y51499D01*
X235991Y51758D01*
X236359Y51971D01*
X236753Y52134D01*
X237165Y52244D01*
X237587Y52300D01*
X238013Y52300D01*
X238435Y52244D01*
X238847Y52134D01*
X239241Y51971D01*
X239609Y51758D01*
X239947Y51499D01*
X240249Y51197D01*
X240508Y50859D01*
X240721Y50491D01*
X240884Y50097D01*
X240994Y49685D01*
X241050Y49263D01*
X241050Y48837D01*
X298850Y48837D02*
X298794Y48415D01*
X298684Y48003D01*
X298521Y47609D01*
X298308Y47241D01*
X298049Y46903D01*
X297747Y46601D01*
X297409Y46342D01*
X297041Y46129D01*
X296647Y45966D01*
X296235Y45856D01*
X295813Y45800D01*
X295387Y45800D01*
X294965Y45856D01*
X294553Y45966D01*
X294159Y46129D01*
X293791Y46342D01*
X293453Y46601D01*
X293151Y46903D01*
X292892Y47241D01*
X292679Y47609D01*
X292516Y48003D01*
X292406Y48415D01*
X292350Y48837D01*
X292350Y49263D01*
X292406Y49685D01*
X292516Y50097D01*
X292679Y50491D01*
X292892Y50859D01*
X293151Y51197D01*
X293453Y51499D01*
X293791Y51758D01*
X294159Y51971D01*
X294553Y52134D01*
X294965Y52244D01*
X295387Y52300D01*
X295813Y52300D01*
X296235Y52244D01*
X296647Y52134D01*
X297041Y51971D01*
X297409Y51758D01*
X297747Y51499D01*
X298049Y51197D01*
X298308Y50859D01*
X298521Y50491D01*
X298684Y50097D01*
X298794Y49685D01*
X298850Y49263D01*
X298850Y48837D01*
M02*
