G04 EAGLE Gerber RS-274X export*
G75*
%MOMM*%
%FSLAX34Y34*%
%LPD*%
%INSoldermask Top*%
%IPPOS*%
%AMOC8*
5,1,8,0,0,1.08239X$1,22.5*%
G01*
%ADD10C,2.743200*%
%ADD11P,2.969212X8X292.500000*%
%ADD12R,3.003200X1.203200*%
%ADD13R,1.303200X1.653200*%
%ADD14R,2.603200X2.603200*%
%ADD15R,1.203200X3.003200*%
%ADD16R,1.621200X1.621200*%
%ADD17C,1.621200*%
%ADD18R,11.003200X10.613200*%
%ADD19R,1.270000X2.362200*%
%ADD20R,1.422200X2.438200*%
%ADD21R,3.803200X2.403200*%
%ADD22C,1.727200*%
%ADD23C,2.203200*%
%ADD24R,0.803200X1.753200*%
%ADD25R,1.403200X2.003200*%
%ADD26R,1.733200X1.733200*%
%ADD27C,1.733200*%
%ADD28R,0.838200X1.473200*%
%ADD29R,5.703200X4.203200*%
%ADD30R,1.092200X1.701800*%
%ADD31R,1.092200X1.092200*%
%ADD32R,0.753200X1.403200*%
%ADD33R,0.903200X1.203200*%
%ADD34R,1.503200X1.703200*%
%ADD35R,2.603200X1.603200*%
%ADD36C,1.473200*%
%ADD37C,1.625600*%
%ADD38R,1.403200X0.803200*%
%ADD39R,0.503200X1.653200*%
%ADD40R,0.803200X1.653200*%
%ADD41R,0.753200X1.653200*%
%ADD42C,0.853200*%
%ADD43C,1.016000*%
%ADD44C,1.117600*%

G36*
X311184Y42883D02*
X311184Y42883D01*
X311190Y42889D01*
X311195Y42885D01*
X312425Y43250D01*
X312430Y43257D01*
X312435Y43255D01*
X313554Y43885D01*
X313557Y43892D01*
X313563Y43891D01*
X314513Y44754D01*
X314514Y44762D01*
X314520Y44762D01*
X315254Y45815D01*
X315254Y45823D01*
X315259Y45825D01*
X315741Y47015D01*
X315739Y47020D01*
X315743Y47023D01*
X315742Y47024D01*
X315744Y47025D01*
X315949Y48292D01*
X315946Y48297D01*
X315949Y48300D01*
X315949Y60300D01*
X315946Y60304D01*
X315949Y60307D01*
X315794Y61429D01*
X315789Y61434D01*
X315792Y61438D01*
X315421Y62509D01*
X315415Y62513D01*
X315417Y62518D01*
X314844Y63495D01*
X314838Y63498D01*
X314839Y63503D01*
X314086Y64350D01*
X314079Y64352D01*
X314079Y64357D01*
X313176Y65041D01*
X313169Y65041D01*
X313168Y65046D01*
X312149Y65541D01*
X312142Y65539D01*
X312140Y65544D01*
X311043Y65831D01*
X311037Y65828D01*
X311034Y65832D01*
X309903Y65899D01*
X309897Y65899D01*
X308766Y65832D01*
X308761Y65827D01*
X308757Y65831D01*
X307660Y65544D01*
X307656Y65538D01*
X307651Y65541D01*
X306632Y65046D01*
X306629Y65040D01*
X306624Y65041D01*
X305721Y64357D01*
X305719Y64350D01*
X305714Y64350D01*
X304961Y63503D01*
X304961Y63496D01*
X304956Y63495D01*
X304383Y62518D01*
X304384Y62515D01*
X304383Y62514D01*
X304384Y62513D01*
X304384Y62511D01*
X304379Y62509D01*
X304008Y61438D01*
X304010Y61433D01*
X304007Y61431D01*
X304007Y61430D01*
X304006Y61429D01*
X303851Y60307D01*
X303854Y60302D01*
X303851Y60300D01*
X303851Y48300D01*
X303854Y48295D01*
X303851Y48292D01*
X304056Y47025D01*
X304062Y47019D01*
X304059Y47015D01*
X304541Y45825D01*
X304548Y45821D01*
X304546Y45815D01*
X305280Y44762D01*
X305288Y44760D01*
X305287Y44754D01*
X306237Y43891D01*
X306246Y43890D01*
X306246Y43885D01*
X307365Y43255D01*
X307373Y43256D01*
X307375Y43250D01*
X308605Y42885D01*
X308613Y42888D01*
X308616Y42883D01*
X309897Y42801D01*
X309901Y42804D01*
X309903Y42801D01*
X311184Y42883D01*
G37*
G36*
X224784Y42883D02*
X224784Y42883D01*
X224790Y42889D01*
X224795Y42885D01*
X226025Y43250D01*
X226030Y43257D01*
X226035Y43255D01*
X227154Y43885D01*
X227157Y43892D01*
X227163Y43891D01*
X228113Y44754D01*
X228114Y44762D01*
X228120Y44762D01*
X228854Y45815D01*
X228854Y45823D01*
X228859Y45825D01*
X229341Y47015D01*
X229339Y47020D01*
X229343Y47023D01*
X229342Y47024D01*
X229344Y47025D01*
X229549Y48292D01*
X229546Y48297D01*
X229549Y48300D01*
X229549Y60300D01*
X229546Y60304D01*
X229549Y60307D01*
X229394Y61429D01*
X229389Y61434D01*
X229392Y61438D01*
X229021Y62509D01*
X229015Y62513D01*
X229017Y62518D01*
X228444Y63495D01*
X228438Y63498D01*
X228439Y63503D01*
X227686Y64350D01*
X227679Y64352D01*
X227679Y64357D01*
X226776Y65041D01*
X226769Y65041D01*
X226768Y65046D01*
X225749Y65541D01*
X225742Y65539D01*
X225740Y65544D01*
X224643Y65831D01*
X224637Y65828D01*
X224634Y65832D01*
X223503Y65899D01*
X223497Y65899D01*
X222366Y65832D01*
X222361Y65827D01*
X222357Y65831D01*
X221260Y65544D01*
X221256Y65538D01*
X221251Y65541D01*
X220232Y65046D01*
X220229Y65040D01*
X220224Y65041D01*
X219321Y64357D01*
X219319Y64350D01*
X219314Y64350D01*
X218561Y63503D01*
X218561Y63496D01*
X218556Y63495D01*
X217983Y62518D01*
X217984Y62515D01*
X217983Y62514D01*
X217984Y62513D01*
X217984Y62511D01*
X217979Y62509D01*
X217608Y61438D01*
X217610Y61433D01*
X217607Y61431D01*
X217607Y61430D01*
X217606Y61429D01*
X217451Y60307D01*
X217454Y60302D01*
X217451Y60300D01*
X217451Y48300D01*
X217454Y48295D01*
X217451Y48292D01*
X217656Y47025D01*
X217662Y47019D01*
X217659Y47015D01*
X218141Y45825D01*
X218148Y45821D01*
X218146Y45815D01*
X218880Y44762D01*
X218888Y44760D01*
X218887Y44754D01*
X219837Y43891D01*
X219846Y43890D01*
X219846Y43885D01*
X220965Y43255D01*
X220973Y43256D01*
X220975Y43250D01*
X222205Y42885D01*
X222213Y42888D01*
X222216Y42883D01*
X223497Y42801D01*
X223501Y42804D01*
X223503Y42801D01*
X224784Y42883D01*
G37*
G36*
X311071Y3611D02*
X311071Y3611D01*
X311076Y3616D01*
X311080Y3613D01*
X312203Y3948D01*
X312207Y3954D01*
X312211Y3952D01*
X313247Y4500D01*
X313250Y4506D01*
X313255Y4505D01*
X314163Y5244D01*
X314165Y5251D01*
X314170Y5251D01*
X314917Y6153D01*
X314917Y6161D01*
X314923Y6161D01*
X315479Y7192D01*
X315478Y7199D01*
X315483Y7201D01*
X315827Y8320D01*
X315825Y8327D01*
X315829Y8330D01*
X315949Y9495D01*
X315947Y9498D01*
X315949Y9500D01*
X315949Y15500D01*
X315947Y15503D01*
X315949Y15505D01*
X315838Y16681D01*
X315833Y16686D01*
X315836Y16690D01*
X315498Y17822D01*
X315492Y17826D01*
X315494Y17831D01*
X314942Y18875D01*
X314935Y18878D01*
X314937Y18883D01*
X314191Y19799D01*
X314184Y19800D01*
X314184Y19806D01*
X313275Y20559D01*
X313267Y20559D01*
X313267Y20564D01*
X312227Y21125D01*
X312220Y21124D01*
X312218Y21129D01*
X311089Y21476D01*
X311083Y21474D01*
X311080Y21478D01*
X309905Y21599D01*
X309898Y21595D01*
X309894Y21599D01*
X308554Y21442D01*
X308548Y21437D01*
X308543Y21440D01*
X307272Y20989D01*
X307267Y20982D01*
X307262Y20984D01*
X306123Y20262D01*
X306120Y20254D01*
X306114Y20255D01*
X305164Y19297D01*
X305163Y19289D01*
X305157Y19288D01*
X304444Y18143D01*
X304445Y18135D01*
X304439Y18133D01*
X303999Y16857D01*
X304001Y16850D01*
X303997Y16847D01*
X303851Y15505D01*
X303853Y15502D01*
X303851Y15500D01*
X303851Y9500D01*
X303853Y9497D01*
X303851Y9494D01*
X304006Y8165D01*
X304012Y8159D01*
X304009Y8155D01*
X304456Y6894D01*
X304463Y6889D01*
X304461Y6884D01*
X305178Y5754D01*
X305185Y5751D01*
X305184Y5745D01*
X306135Y4803D01*
X306143Y4802D01*
X306143Y4796D01*
X307279Y4089D01*
X307287Y4090D01*
X307289Y4084D01*
X308554Y3648D01*
X308559Y3649D01*
X308560Y3649D01*
X308563Y3649D01*
X308565Y3645D01*
X309895Y3501D01*
X309901Y3505D01*
X309905Y3501D01*
X311071Y3611D01*
G37*
G36*
X224671Y3611D02*
X224671Y3611D01*
X224676Y3616D01*
X224680Y3613D01*
X225803Y3948D01*
X225807Y3954D01*
X225811Y3952D01*
X226847Y4500D01*
X226850Y4506D01*
X226855Y4505D01*
X227763Y5244D01*
X227765Y5251D01*
X227770Y5251D01*
X228517Y6153D01*
X228517Y6161D01*
X228523Y6161D01*
X229079Y7192D01*
X229078Y7199D01*
X229083Y7201D01*
X229427Y8320D01*
X229425Y8327D01*
X229429Y8330D01*
X229549Y9495D01*
X229547Y9498D01*
X229549Y9500D01*
X229549Y15500D01*
X229547Y15503D01*
X229549Y15505D01*
X229438Y16681D01*
X229433Y16686D01*
X229436Y16690D01*
X229098Y17822D01*
X229092Y17826D01*
X229094Y17831D01*
X228542Y18875D01*
X228535Y18878D01*
X228537Y18883D01*
X227791Y19799D01*
X227784Y19800D01*
X227784Y19806D01*
X226875Y20559D01*
X226867Y20559D01*
X226867Y20564D01*
X225827Y21125D01*
X225820Y21124D01*
X225818Y21129D01*
X224689Y21476D01*
X224683Y21474D01*
X224680Y21478D01*
X223505Y21599D01*
X223498Y21595D01*
X223494Y21599D01*
X222154Y21442D01*
X222148Y21437D01*
X222143Y21440D01*
X220872Y20989D01*
X220867Y20982D01*
X220862Y20984D01*
X219723Y20262D01*
X219720Y20254D01*
X219714Y20255D01*
X218764Y19297D01*
X218763Y19289D01*
X218757Y19288D01*
X218044Y18143D01*
X218045Y18135D01*
X218039Y18133D01*
X217599Y16857D01*
X217601Y16850D01*
X217597Y16847D01*
X217451Y15505D01*
X217453Y15502D01*
X217451Y15500D01*
X217451Y9500D01*
X217453Y9497D01*
X217451Y9494D01*
X217606Y8165D01*
X217612Y8159D01*
X217609Y8155D01*
X218056Y6894D01*
X218063Y6889D01*
X218061Y6884D01*
X218778Y5754D01*
X218785Y5751D01*
X218784Y5745D01*
X219735Y4803D01*
X219743Y4802D01*
X219743Y4796D01*
X220879Y4089D01*
X220887Y4090D01*
X220889Y4084D01*
X222154Y3648D01*
X222159Y3649D01*
X222160Y3649D01*
X222163Y3649D01*
X222165Y3645D01*
X223495Y3501D01*
X223501Y3505D01*
X223505Y3501D01*
X224671Y3611D01*
G37*
D10*
X38100Y38100D03*
X723900Y38100D03*
X38100Y723900D03*
X723900Y723900D03*
X584200Y698500D03*
D11*
X584200Y647700D03*
D12*
X408300Y533400D03*
X455300Y533400D03*
D13*
X54500Y342900D03*
X72500Y342900D03*
X54500Y368300D03*
X72500Y368300D03*
D14*
X495300Y555400D03*
X495300Y511400D03*
X638400Y723900D03*
X682400Y723900D03*
D15*
X459500Y469900D03*
X429500Y469900D03*
D16*
X25400Y128270D03*
D17*
X25400Y153270D03*
X25400Y178270D03*
X25400Y203270D03*
D18*
X469900Y647700D03*
D19*
X503936Y731012D03*
X486918Y731012D03*
X469900Y731012D03*
X452882Y731012D03*
X435864Y731012D03*
D20*
X670810Y297690D03*
X647700Y297690D03*
X624590Y297690D03*
D21*
X647700Y235710D03*
D22*
X27500Y571500D03*
X27500Y546100D03*
X27500Y520700D03*
X27500Y495300D03*
X27500Y596900D03*
X27500Y622300D03*
X27500Y647700D03*
D23*
X345500Y416500D03*
X345500Y726500D03*
D24*
X177400Y60450D03*
X167400Y60450D03*
X157400Y60450D03*
X147400Y60450D03*
X137400Y60450D03*
X127400Y60450D03*
D25*
X190400Y21700D03*
X114400Y21700D03*
D26*
X723900Y609600D03*
D27*
X723900Y584200D03*
D28*
X664464Y685800D03*
X656336Y685800D03*
D29*
X596900Y588400D03*
X596900Y478400D03*
D30*
X412801Y341503D03*
X400101Y341503D03*
X387401Y341503D03*
X374701Y341503D03*
X362001Y341503D03*
X349301Y341503D03*
X336601Y341503D03*
X323901Y341503D03*
X311201Y341503D03*
X298501Y341503D03*
X285801Y341503D03*
X273101Y341503D03*
X260401Y341503D03*
X247701Y341503D03*
X235001Y341503D03*
X222301Y341503D03*
X209601Y341503D03*
X196901Y341503D03*
X184201Y341503D03*
X184201Y166497D03*
X196901Y166497D03*
X209601Y166497D03*
X222301Y166497D03*
X235001Y166497D03*
X247701Y166497D03*
X260401Y166497D03*
X273101Y166497D03*
X285801Y166497D03*
X298501Y166497D03*
X311201Y166497D03*
X323901Y166497D03*
X336601Y166497D03*
X349301Y166497D03*
X362001Y166497D03*
X374701Y166497D03*
X387401Y166497D03*
X400101Y166497D03*
X412801Y166497D03*
D31*
X334823Y269037D03*
X348818Y283032D03*
X348818Y255041D03*
X348818Y269037D03*
X334823Y283032D03*
X334823Y255041D03*
X320827Y283032D03*
X320827Y269037D03*
X320827Y255041D03*
D32*
X676300Y101299D03*
X685800Y101299D03*
X695300Y101299D03*
X695300Y127301D03*
X676300Y127301D03*
D33*
X549300Y181040D03*
X558800Y181040D03*
X568300Y181040D03*
X568300Y205040D03*
X549300Y205040D03*
D34*
X619100Y177800D03*
X600100Y177800D03*
X568300Y241300D03*
X549300Y241300D03*
D35*
X520700Y165800D03*
X520700Y189800D03*
D36*
X711200Y345440D03*
X711200Y317500D03*
X711200Y279400D03*
D37*
X177800Y108712D02*
X177800Y94488D01*
X152400Y94488D02*
X152400Y108712D01*
D26*
X25400Y279400D03*
D27*
X25400Y304800D03*
D26*
X723900Y533400D03*
D27*
X723900Y508000D03*
D38*
X378400Y107950D03*
X378400Y95250D03*
X378400Y82550D03*
X378400Y69850D03*
X378400Y57150D03*
X378400Y44450D03*
X378400Y31750D03*
X378400Y19050D03*
X434400Y19050D03*
X434400Y31750D03*
X434400Y44450D03*
X434400Y57150D03*
X434400Y69850D03*
X434400Y82550D03*
X434400Y95250D03*
X434400Y107950D03*
D39*
X274200Y63500D03*
X269200Y63500D03*
D40*
X298950Y63500D03*
D41*
X291200Y63500D03*
D39*
X284200Y63500D03*
X279200Y63500D03*
X259200Y63500D03*
X264200Y63500D03*
D40*
X234450Y63500D03*
D41*
X242200Y63500D03*
D39*
X249200Y63500D03*
X254200Y63500D03*
D42*
X237800Y49050D03*
X295600Y49050D03*
D34*
X288900Y101600D03*
X269900Y101600D03*
X248260Y101600D03*
X229260Y101600D03*
X310540Y101600D03*
X329540Y101600D03*
X343510Y73660D03*
X324510Y73660D03*
X447700Y127000D03*
X466700Y127000D03*
D26*
X723900Y685800D03*
D27*
X723900Y660400D03*
D13*
X638700Y63500D03*
X656700Y63500D03*
X499000Y63500D03*
X517000Y63500D03*
X499000Y38100D03*
X517000Y38100D03*
D34*
X330860Y388620D03*
X349860Y388620D03*
X376580Y388620D03*
X395580Y388620D03*
X111100Y342900D03*
X92100Y342900D03*
X111100Y368300D03*
X92100Y368300D03*
X142900Y139700D03*
X161900Y139700D03*
X638200Y38100D03*
X657200Y38100D03*
X625500Y127000D03*
X644500Y127000D03*
X121260Y139700D03*
X102260Y139700D03*
X123800Y165100D03*
X104800Y165100D03*
X287680Y388620D03*
X306680Y388620D03*
X536600Y63500D03*
X555600Y63500D03*
X536600Y38100D03*
X555600Y38100D03*
X714400Y127000D03*
X733400Y127000D03*
X714400Y101600D03*
X733400Y101600D03*
X644500Y342900D03*
X625500Y342900D03*
X306680Y365760D03*
X287680Y365760D03*
X349860Y365760D03*
X330860Y365760D03*
X104800Y101600D03*
X123800Y101600D03*
X520040Y86360D03*
X501040Y86360D03*
D14*
X596900Y93120D03*
X596900Y49120D03*
D36*
X711200Y368300D03*
X711200Y396240D03*
D37*
X500380Y129032D02*
X500380Y114808D01*
X525780Y114808D02*
X525780Y129032D01*
D43*
X464820Y81280D03*
X132080Y33020D03*
D44*
X124460Y119380D03*
X144780Y172720D03*
X223520Y128016D03*
X246380Y146304D03*
D43*
X416560Y68580D03*
X454660Y68580D03*
D44*
X109220Y279400D03*
X154940Y368300D03*
X271780Y309880D03*
X309880Y312420D03*
X269240Y292100D03*
X314960Y294640D03*
X177800Y43180D03*
X396240Y81280D03*
X375920Y185420D03*
X375920Y127000D03*
X157480Y43180D03*
X477520Y40640D03*
X342900Y99060D03*
X396240Y96520D03*
X363220Y185420D03*
X546100Y101600D03*
X482600Y93980D03*
X695960Y203200D03*
X634746Y204470D03*
X604520Y114300D03*
X675640Y162560D03*
X142240Y417576D03*
X144780Y548640D03*
X195580Y185420D03*
X195580Y208280D03*
X124460Y335280D03*
X111760Y622300D03*
X322580Y185420D03*
X213360Y208280D03*
X139700Y335280D03*
X134620Y596900D03*
X106680Y190500D03*
X144780Y190500D03*
X88900Y152400D03*
X294640Y215900D03*
X220980Y363220D03*
X370840Y284480D03*
X645160Y99060D03*
X584200Y187960D03*
X551180Y287020D03*
X421640Y147320D03*
X322580Y228600D03*
X693420Y78740D03*
X444500Y370840D03*
X467360Y144780D03*
X347980Y116840D03*
X452120Y48260D03*
X261620Y238760D03*
X154940Y246380D03*
X198120Y147320D03*
X309880Y124460D03*
X198120Y63500D03*
X327660Y55880D03*
X345440Y20320D03*
X81280Y35560D03*
X584200Y220980D03*
X220980Y398780D03*
X678180Y640080D03*
X678180Y558800D03*
X680720Y459740D03*
X533400Y731520D03*
X200660Y116840D03*
X248920Y320040D03*
X233680Y264160D03*
X177800Y208280D03*
X177800Y132080D03*
X548640Y218440D03*
X519738Y230178D03*
X223520Y146304D03*
X388620Y147320D03*
X347980Y146304D03*
X254116Y78624D03*
X231140Y83820D03*
X279400Y79756D03*
X279400Y116840D03*
X261620Y43180D03*
X277272Y43180D03*
X350520Y55880D03*
X574040Y124460D03*
X401320Y182880D03*
X675640Y144780D03*
X647700Y144780D03*
X662940Y177800D03*
X636016Y177800D03*
X487680Y144780D03*
X457200Y22860D03*
X363220Y89154D03*
X746760Y160020D03*
X711200Y459740D03*
X27940Y368300D03*
X60960Y73660D03*
X342900Y185420D03*
X332740Y127000D03*
X391160Y195580D03*
X525780Y147320D03*
X548640Y165100D03*
M02*
