M48
;GenerationSoftware,Autodesk,EAGLE,9.6.2*%
;CreationDate,2022-10-28T14:19:26Z*%
FMAT,2
ICI,OFF
METRIC,TZ,000.000
T9C0.406
T8C0.508
T7C0.650
T6C0.910
T5C0.914
T4C1.016
T3C1.020
T2C2.000
T1C2.540
%
G90
M71
T1
X3810Y3810
X72390Y3810
X3810Y72390
X72390Y72390
T2
X34550Y72650
X34550Y41650
T3
X72390Y60960
X72390Y58420
X2540Y27940
X2540Y30480
X72390Y53340
X72390Y50800
X72390Y68580
X72390Y66040
T4
X2750Y57150
X2750Y54610
X2750Y64770
X58420Y69850
X58420Y64770
X2750Y62230
X2750Y59690
X2750Y49530
X2750Y52070
T5
X52578Y12192
X17780Y10160
X15240Y10160
X50038Y12192
T6
X2540Y20327
X2540Y17827
X2540Y15327
X2540Y12827
T7
X29560Y4905
X23780Y4905
T8
X19558Y20828
X12446Y33528
X32258Y18542
X21336Y20828
X13970Y33528
X13462Y59690
X10668Y19050
X14478Y19050
X8890Y15240
X29464Y21590
X22098Y36322
X37084Y28448
X64516Y9906
X58420Y18796
X55118Y28702
X42164Y14732
X32258Y22860
X69342Y7874
X44450Y37084
X46736Y14478
X34798Y11684
X45212Y4826
X26162Y23876
X15494Y24638
X19812Y14732
X30988Y12446
X19812Y6350
X32766Y5588
X34544Y2032
X8128Y3556
X58420Y22098
X22098Y39878
X67818Y64008
X67818Y55880
X68072Y45974
X11176Y62230
X20066Y11684
X24892Y32004
X23368Y26416
X17780Y20828
X17780Y13208
X54864Y21844
X51974Y23018
X22352Y14630
X38862Y14732
X34798Y14630
X25412Y7862
X23114Y8382
X27940Y7976
X27940Y11684
X26162Y4318
X27727Y4318
X35052Y5588
X57404Y12446
X40132Y18288
X67564Y14478
X64770Y14478
X66294Y17780
X63602Y17780
X48768Y14478
X45720Y2286
X36322Y8915
X74676Y16002
X71120Y45974
X2794Y36830
X6096Y7366
X34290Y18542
X33274Y12700
X39116Y19558
X54864Y16510
X37592Y12700
X12446Y11938
X14478Y17272
X22352Y12802
X24638Y14630
X10922Y27940
X15494Y36830
X27178Y30988
X30988Y31242
X26924Y29210
X31496Y29464
X17780Y4318
X53340Y73152
X39624Y8128
X37592Y18542
X15748Y4318
X47752Y4064
X34290Y9906
X39624Y9652
X36322Y18542
X54610Y10160
X48260Y9398
X69596Y20320
X63475Y20447
X60452Y11430
X67564Y16256
X14224Y41758
X14478Y54864
X19558Y18542
X52578Y14732
T9
X41656Y6858
X13208Y3302
X46482Y8128
X45466Y6858
M30